# xmcd
#
# Track frame offsets: 
#        186
#        17250
#        36473
#        48294
#        70748
#        86058
#        101287
#        121797
#        134469
#        151937
#        170099
#        187961
#
# Disc length: 2781 seconds
#
# Revision: 0
# Processed by: cddbd v1.5.2PL0 Copyright (c) Steve Scherf et al.
# Submitted via: ExactAudioCopy v0.99pb3
#
DISCID=920adb0c
DTITLE=The Tenderfoot - Save The Year
DYEAR=2005
DGENRE=5:15
TTITLE0=Waking Me Up Again
TTITLE1=Cowbell Blues
TTITLE2=A Time For Making Do
TTITLE3=Still Holding My Stomach In
TTITLE4=Like A Leaf
TTITLE5=Too Drunk To Realise I'm Making You Want To Hit Me
TTITLE6=Another Night Wasting
TTITLE7=Bugsy's Lament
TTITLE8=Save The Year
TTITLE9=To Know A Ceiling Well
TTITLE10=The Last One-Two
TTITLE11=You Stopped Letting Me Hold You In The Night
EXTD=
EXTT0=
EXTT1=
EXTT2=
EXTT3=
EXTT4=
EXTT5=
EXTT6=
EXTT7=
EXTT8=
EXTT9=
EXTT10=
EXTT11=
PLAYORDER=
